<?xml version="1.0" encoding="UTF-8" standalone="no"?>
<!-- Created with Inkscape (http://www.inkscape.org/) --><svg height="128" id="svg2811" inkscape:output_extension="org.inkscape.output.svgz.inkscape" inkscape:version="0.45+devel" sodipodi:docname="folder-new.svgz" sodipodi:version="0.32" version="1.0" width="128" xmlns="http://www.w3.org/2000/svg" xmlns:cc="http://web.resource.org/cc/" xmlns:dc="http://purl.org/dc/elements/1.1/" xmlns:inkscape="http://www.inkscape.org/namespaces/inkscape" xmlns:rdf="http://www.w3.org/1999/02/22-rdf-syntax-ns#" xmlns:sodipodi="http://sodipodi.sourceforge.net/DTD/sodipodi-0.dtd" xmlns:svg="http://www.w3.org/2000/svg" xmlns:xlink="http://www.w3.org/1999/xlink">
  <metadata>
    <rdf:RDF xmlns:cc="http://web.resource.org/cc/" xmlns:dc="http://purl.org/dc/elements/1.1/" xmlns:rdf="http://www.w3.org/1999/02/22-rdf-syntax-ns#">
      <cc:Work rdf:about="">
        <dc:title></dc:title>
        <dc:description></dc:description>
        <dc:subject>
          <rdf:Bag>
            <rdf:li>unsorted</rdf:li>
          </rdf:Bag>
        </dc:subject>
        <dc:publisher>
          <cc:Agent rdf:about="http://www.openclipart.org/">
            <dc:title>Open Clip Art Library, Source: Oxygen Icons, Source: Oxygen Icons, Source: Oxygen Icons, Source: Oxygen Icons</dc:title>
          </cc:Agent>
        </dc:publisher>
        <dc:creator>
          <cc:Agent>
            <dc:title></dc:title>
          </cc:Agent>
        </dc:creator>
        <dc:rights>
          <cc:Agent>
            <dc:title></dc:title>
          </cc:Agent>
        </dc:rights>
        <dc:date></dc:date>
        <dc:format>image/svg+xml</dc:format>
        <dc:type rdf:resource="http://purl.org/dc/dcmitype/StillImage"/>
        <cc:license rdf:resource="http://creativecommons.org/licenses/by-sa/3.0/ or http://creativecommons.org/licenses/LGPL/2.1/"/>
        <dc:language>en</dc:language>
      </cc:Work>
    </rdf:RDF>
  </metadata>
  <sodipodi:namedview bordercolor="#666666" borderopacity="1.0" gridtolerance="10.0" guidetolerance="10.0" id="base" inkscape:current-layer="layer1" inkscape:cx="64" inkscape:cy="64" inkscape:pageopacity="0.0" inkscape:pageshadow="2" inkscape:window-height="606" inkscape:window-width="765" inkscape:window-x="0" inkscape:window-y="0" inkscape:zoom="3.1875" objecttolerance="10.0" pagecolor="#ffffff"/>
  <defs id="defs2813">
    <filter id="filter5943" inkscape:collect="always">
      <feGaussianBlur id="feGaussianBlur5945" inkscape:collect="always" stdDeviation="1.04"/>
    </filter>
    <linearGradient id="linearGradient6740">
      <stop id="stop6742" offset="0" style="stop-color:#004d00;stop-opacity:0;"/>
      <stop id="stop6748" offset="0.5" style="stop-color:#004d00;stop-opacity:1;"/>
      <stop id="stop6744" offset="1" style="stop-color:#004d00;stop-opacity:0;"/>
    </linearGradient>
    <linearGradient gradientTransform="translate(20.000035,-56.000003)" gradientUnits="userSpaceOnUse" id="linearGradient6930" inkscape:collect="always" x1="102" x2="102" xlink:href="#linearGradient6740" y1="118" y2="65.932846"/>
    <linearGradient gradientTransform="matrix(0,1,-1,0,-39.9985,140.0029)" gradientUnits="userSpaceOnUse" id="linearGradient3711" x1="-84.002403" x2="-23.516129" y1="-383.9971" y2="-383.9975">
      <stop id="stop3713" offset="0" style="stop-color:white;stop-opacity:1;"/>
      <stop id="stop3715" offset="1" style="stop-color:white;stop-opacity:0;"/>
    </linearGradient>
    <linearGradient gradientTransform="matrix(0,0.7388168,-0.7388168,0,-1.5226652,63.255682)" gradientUnits="userSpaceOnUse" id="linearGradient8927" inkscape:collect="always" x1="-80.00296" x2="-45.096584" xlink:href="#linearGradient3711" y1="-131.93112" y2="-131.93112"/>
    <filter id="filter7317" inkscape:collect="always">
      <feGaussianBlur id="feGaussianBlur7319" inkscape:collect="always" stdDeviation="2.8805897"/>
    </filter>
    <clipPath clipPathUnits="userSpaceOnUse" id="clipPath5163">
      <circle cx="343.99899" cy="92" id="circle5165" r="36" rx="8.0010004" ry="8.0010004" sodipodi:cx="343.99899" sodipodi:cy="92" sodipodi:rx="36" sodipodi:ry="36" style="fill:url(#linearGradient5167);fill-opacity:1"/>
    </clipPath>
    <linearGradient id="linearGradient4296">
      <stop id="stop4298" offset="0" style="stop-color:#00ff00;stop-opacity:1"/>
      <stop id="stop4300" offset="1" style="stop-color:#006500;stop-opacity:1"/>
    </linearGradient>
    <linearGradient gradientUnits="userSpaceOnUse" id="linearGradient4272" inkscape:collect="always" x1="328.12448" x2="336.98077" xlink:href="#linearGradient4296" y1="120.81158" y2="87.759453"/>
    <linearGradient gradientTransform="matrix(0,1,-1,0,-39.9985,140.0029)" gradientUnits="userSpaceOnUse" id="linearGradient4770" x1="-84.002403" x2="-12.0029" y1="-383.9971" y2="-383.9971">
      <stop id="stop4772" offset="0" style="stop-color:#e5ff00;stop-opacity:1"/>
      <stop id="stop4774" offset="1" style="stop-color:#bff500;stop-opacity:0;"/>
    </linearGradient>
    <radialGradient cx="343.99899" cy="92" fx="343.99899" fy="92" gradientUnits="userSpaceOnUse" id="radialGradient8920" inkscape:collect="always" r="36" xlink:href="#linearGradient4770"/>
    <linearGradient gradientTransform="matrix(0,1,-1,0,-39.9985,140.0029)" gradientUnits="userSpaceOnUse" id="linearGradient5958" x1="-84.002403" x2="-12.0029" y1="-383.9971" y2="-383.9971">
      <stop id="stop5960" offset="0" style="stop-color:#008c00;stop-opacity:1"/>
      <stop id="stop5962" offset="1" style="stop-color:#00bf00;stop-opacity:1"/>
    </linearGradient>
    <linearGradient gradientTransform="matrix(0,1,-1,0,-39.9985,140.0029)" gradientUnits="userSpaceOnUse" id="linearGradient8916" inkscape:collect="always" x1="-86.120354" x2="-56.357521" xlink:href="#linearGradient5958" y1="-381.09921" y2="-373.1243"/>
    <filter id="filter4292" inkscape:collect="always">
      <feGaussianBlur id="feGaussianBlur4294" inkscape:collect="always" stdDeviation="2.1604423"/>
    </filter>
    <linearGradient gradientTransform="matrix(1.0033808,0,0,1,-8.2378002,8)" gradientUnits="userSpaceOnUse" id="linearGradient2937" x1="122.74438" x2="122.39215" y1="96.721588" y2="20.043535">
      <stop id="stop2939" offset="0" style="stop-color:#72b4f4;stop-opacity:1"/>
      <stop id="stop2941" offset="0.13053299" style="stop-color:#b3d9ff;stop-opacity:1"/>
      <stop id="stop2943" offset="0.34621301" style="stop-color:#b3d9ff;stop-opacity:1"/>
      <stop id="stop2945" offset="0.72006166" style="stop-color:#71a8f5;stop-opacity:1"/>
      <stop id="stop2947" offset="1" style="stop-color:#508ed9;stop-opacity:1"/>
    </linearGradient>
    <linearGradient gradientTransform="translate(242.00093,332.5)" gradientUnits="userSpaceOnUse" id="linearGradient2927" x1="-178" x2="-178" y1="-228.3945" y2="-304.61469">
      <stop id="stop2929" offset="0" style="stop-color:#cfe7ff;stop-opacity:1"/>
      <stop id="stop2931" offset="0.1" style="stop-color:#71a8f5;stop-opacity:1"/>
      <stop id="stop2933" offset="1" style="stop-color:#2c72c7;stop-opacity:1"/>
    </linearGradient>
    <linearGradient id="linearGradient2822">
      <stop id="stop2824" offset="0" style="stop-color:#ffffff;stop-opacity:1"/>
      <stop id="stop2826" offset="1" style="stop-color:#ffffff;stop-opacity:0"/>
    </linearGradient>
    <linearGradient gradientTransform="matrix(1.0033404,0,0,1,-8.2374684,16)" gradientUnits="userSpaceOnUse" id="XMLID_9_" x1="71.999496" x2="71.999496" y1="14.2578" y2="19.9583">
      <stop id="stop46" offset="0.25" style="stop-color:#71a8f5;stop-opacity:0"/>
      <stop id="stop48" offset="1" style="stop-color:#0057ae;stop-opacity:1"/>
    </linearGradient>
    <filter height="1.768" id="filter2807" width="1.0512" x="-0.025599999" y="-0.384">
      <feGaussianBlur id="feGaussianBlur2809" inkscape:collect="always" stdDeviation="1.28"/>
    </filter>
    <linearGradient gradientTransform="translate(-6.999995,16)" gradientUnits="userSpaceOnUse" id="XMLID_6_" x1="72.000504" x2="72.000504" y1="96" y2="0.00048828119">
      <stop id="stop7" offset="0" style="stop-color:#00479e;stop-opacity:1"/>
      <stop id="stop9" offset="0.0769" style="stop-color:#2c72c7;stop-opacity:1"/>
      <stop id="stop11" offset="0.58579999" style="stop-color:#6ea1df;stop-opacity:1"/>
      <stop id="stop13" offset="0.96450001" style="stop-color:#adcbee;stop-opacity:1"/>
    </linearGradient>
    <linearGradient gradientTransform="matrix(1.0033808,0,0,1,-8.2378,16)" gradientUnits="userSpaceOnUse" id="linearGradient3109" x1="122.74438" x2="122.74438" xlink:href="#linearGradient2937" y1="96" y2="20"/>
    <linearGradient gradientTransform="translate(242.00093,340.5)" gradientUnits="userSpaceOnUse" id="linearGradient2923" x1="-168.99216" x2="-168.99216" xlink:href="#linearGradient2822" y1="-300.5" y2="-296.48441"/>
    <linearGradient gradientTransform="translate(242.00093,340.5)" gradientUnits="userSpaceOnUse" id="linearGradient2925" x1="-178" x2="-178" xlink:href="#linearGradient2927" y1="-228.5" y2="-304.61469"/>
    <filter height="2.5382431" id="filter2787" inkscape:collect="always" width="1.1025495" x="-0.051274771" y="-0.76912157">
      <feGaussianBlur id="feGaussianBlur2789" inkscape:collect="always" stdDeviation="2.5637386"/>
    </filter>
    <linearGradient gradientTransform="matrix(0,1,-1,0,-39.9985,140.0029)" gradientUnits="userSpaceOnUse" id="linearGradient3088" inkscape:collect="always" x1="-86.120354" x2="-56.357521" xlink:href="#linearGradient5958" y1="-381.09921" y2="-373.1243"/>
    <radialGradient cx="343.99899" cy="92" fx="343.99899" fy="92" gradientUnits="userSpaceOnUse" id="radialGradient3090" inkscape:collect="always" r="36" xlink:href="#linearGradient4770"/>
    <linearGradient gradientUnits="userSpaceOnUse" id="linearGradient3092" inkscape:collect="always" x1="328.12448" x2="336.98077" xlink:href="#linearGradient4296" y1="120.81158" y2="87.759453"/>
    <linearGradient gradientTransform="matrix(0,0.7388168,-0.7388168,0,-1.5226652,63.255682)" gradientUnits="userSpaceOnUse" id="linearGradient3094" inkscape:collect="always" x1="-80.00296" x2="-45.096584" xlink:href="#linearGradient3711" y1="-131.93112" y2="-131.93112"/>
    <linearGradient gradientTransform="translate(20.000035,-56.000003)" gradientUnits="userSpaceOnUse" id="linearGradient3096" inkscape:collect="always" x1="102" x2="102" xlink:href="#linearGradient6740" y1="118" y2="65.932846"/>
  </defs>
  <g id="layer1">
    <path d="M 118.983,27 C 118.992,25.35 117.64999,24 115.99999,24 L 40.961007,24 C 40.961007,24 32.061006,16 30.961,16 L 14.999998,16 C 12.799996,16 10.999999,17.8 10.999999,20 L 10.999999,27 C 10.999999,27 11.999999,112 8,112 L 122,112 C 117.99999,112 118.983,27 118.983,27 z" id="path15" style="fill:url(#XMLID_6_)"/>
    <g id="g17" style="opacity:0.5;filter:url(#filter2787)" transform="matrix(1.0033404,0,0,1,-8.2374684,16)">
      <path d="M 132,96 C 132,98.2 128.4,100 124,100 L 20,100 C 15.6,100 12,98.2 12,96 C 12,93.8 15.6,92 20,92 L 124,92 C 128.4,92 132,93.8 132,96 z" id="path19"/>
    </g>
    <path d="M 124.36598,109.004 C 124.27969,110.652 122.85389,112 121.19831,112 L 6.812906,112 C 5.157329,112 3.731522,110.652 3.644228,109.004 L 0.007982,38.992 C -0.112423,37.347 1.143808,36 2.799384,36 L 125.21183,36 C 126.86741,36 128.11762,37.346 127.9912,38.991 L 124.36598,109.004 z" id="path30" style="opacity:0.9;fill:url(#linearGradient3109);fill-opacity:1"/>
    <path d="M 9.8848616,30 C 9.8938916,31.75 9.9029216,33.755 9.9109516,36 L 118.09511,36 C 118.10414,33.755 118.11317,31.75 118.1212,30 L 9.8848616,30 z" id="path50" style="opacity:0.5;fill:url(#XMLID_9_)"/>
    <path d="M 125.21293,36 L 2.7999261,36 C 1.1449261,36 -0.11207393,37.347 0.0079260701,38.992 L 3.6439261,109.004 C 3.7309261,110.652 5.1569261,112 6.8129261,112 L 121.19793,112 C 122.85393,112 124.27993,110.652 124.36593,109.004 L 127.99093,38.991 C 128.11893,37.346 126.86793,36 125.21293,36 z M 120.41393,108 C 118.87493,108 9.1349261,108 7.5979261,108 C 7.2299261,100.922 4.5229261,48.792 4.0659261,40 C 6.5189261,40 121.45793,40 123.93493,40 C 123.81393,42.32 120.49293,106.474 120.41393,108 z" id="path2894" style="fill:url(#linearGradient2925)"/>
    <path d="M 119.99722,27 C 120.00622,25.35 118.66422,24 117.01422,24 L 42.975222,24 L 36.389222,17.414 C 35.611222,16.636 34.075222,16 32.975222,16 L 12.014222,16 C 9.8142222,16 8.0142222,17.8 8.0142222,20 C 8.0142222,20 7.9822222,30.468 8.0142222,36 L 12.014222,36 C 12.014222,29.191 12.014222,20 12.014222,20 L 32.901222,19.997 C 33.083222,20.019 33.470222,20.179 33.560222,20.243 L 41.318222,28 C 41.318222,28 114.02722,28 115.99922,28 C 115.99922,28.435 116.00022,32.369 116.00222,36 L 120.01422,36 C 120.04522,30.468 119.99722,27 119.99722,27 z" id="path2896" style="fill:#5e95e3;fill-opacity:1"/>
    <path d="M 4.0625,40 C 4.0893862,40.51725 4.2397229,43.200746 4.28125,44 C 7.1335857,44 120.84259,44 123.71875,44 C 123.74671,43.460815 123.93038,40.13649 123.9375,40 C 121.4605,40 6.5155,40 4.0625,40 z" id="path2908" style="fill:url(#linearGradient2923);fill-opacity:1"/>
    <g id="g3077" transform="translate(31.999999,-29.999982)">
      <g id="g3640" transform="translate(-31.999989,29.999999)">
        <circle cx="343.99899" cy="92" id="circle4274" r="36" rx="8.0010004" ry="8.0010004" sodipodi:cx="343.99899" sodipodi:cy="92" sodipodi:rx="36" sodipodi:ry="36" style="opacity:0.5;fill:#000000;fill-opacity:1;filter:url(#filter4292)" transform="matrix(-0.858425,0.2300143,-0.2300143,-0.858425,412.45864,35.85043)"/>
        <circle cx="343.99899" cy="92" id="circle3581_2_" r="36" rx="8.0010004" ry="8.0010004" sodipodi:cx="343.99899" sodipodi:cy="92" sodipodi:rx="36" sodipodi:ry="36" style="fill:url(#linearGradient3088);fill-opacity:1" transform="matrix(-0.858425,0.2300143,-0.2300143,-0.858425,412.45864,31.85043)"/>
        <circle cx="343.99899" cy="92" id="circle4383" r="36" rx="8.0010004" ry="8.0010004" sodipodi:cx="343.99899" sodipodi:cy="92" sodipodi:rx="36" sodipodi:ry="36" style="fill:url(#radialGradient3090);fill-opacity:1" transform="matrix(-0.6438188,0.1725107,-0.1725107,-0.6438188,333.34401,31.887831)"/>
        <circle clip-path="url(#clipPath5163)" cx="343.99899" cy="92" id="circle4776" r="36" rx="8.0010004" ry="8.0010004" sodipodi:cx="343.99899" sodipodi:cy="92" sodipodi:rx="36" sodipodi:ry="36" style="opacity:0.8;fill:none;fill-opacity:1;stroke:url(#linearGradient3092);stroke-width:6.75138187;stroke-miterlimit:4;stroke-dasharray:none;stroke-opacity:1;filter:url(#filter7317)" transform="matrix(-0.858425,-0.2300143,-0.2300143,0.858425,412.45864,32.149572)"/>
        <path d="M 96.000027,4.1481901 C 84.654311,4.1481901 75.173932,12.159796 72.888913,22.826405 C 77.443574,27.0723 86.085806,29.937514 96.000027,29.937514 C 105.91426,29.937514 114.55648,27.0723 119.11114,22.826405 C 116.82613,12.159796 107.34574,4.1481901 96.000027,4.1481901 z" id="circle16776" style="opacity:0.8;fill:url(#linearGradient3094);fill-opacity:1"/>
        <g id="g6850" transform="translate(-26.000031,-3.999996)">
          <path d="M 118.00003,15.999997 L 118.00003,31.999997 L 102.00003,31.999997 L 102.00003,39.999997 L 118.00003,39.999997 L 118.00003,55.999997 L 126.00003,55.999997 L 126.00003,39.999997 L 142.00003,39.999997 L 142.00003,31.999997 L 126.00003,31.999997 L 126.00003,15.999997 L 118.00003,15.999997 z" id="path4123" sodipodi:nodetypes="ccccccccccccc" style="fill:none;fill-opacity:1;fill-rule:evenodd;stroke:url(#linearGradient3096);stroke-width:4;stroke-linecap:round;stroke-linejoin:round;stroke-miterlimit:4;stroke-opacity:1;filter:url(#filter5943)"/>
          <path d="M 118.00003,15.999997 L 118.00003,31.999997 L 102.00003,31.999997 L 102.00003,39.999997 L 118.00003,39.999997 L 118.00003,55.999997 L 126.00003,55.999997 L 126.00003,39.999997 L 142.00003,39.999997 L 142.00003,31.999997 L 126.00003,31.999997 L 126.00003,15.999997 L 118.00003,15.999997 z" id="rect3232" sodipodi:nodetypes="ccccccccccccc" style="fill:#ffffff;fill-opacity:1;fill-rule:evenodd;stroke:none;stroke-width:4;stroke-linecap:round;stroke-linejoin:round;stroke-miterlimit:4;stroke-opacity:1"/>
        </g>
      </g>
    </g>
  </g>
</svg>
